# This file uses centimeters as units for non-parametric coordinates.

mtllib windowlum.mtl
g default
v 0.513280 0.382683 -0.768177
v 0.435514 0.382683 -0.814789
v 0.353554 0.382683 -0.853553
v 0.268188 0.382683 -0.884097
v 0.180240 0.382683 -0.906127
v 0.090556 0.382683 -0.919430
v 0.000000 0.382683 -0.923879
v -0.090556 0.382683 -0.919431
v -0.180240 0.382683 -0.906127
v -0.268188 0.382683 -0.884097
v -0.353553 0.382683 -0.853553
v -0.435513 0.382683 -0.814789
v -0.513280 0.382683 -0.768178
v 0.489969 0.471397 -0.733290
v 0.415735 0.471397 -0.777785
v 0.337497 0.471397 -0.814789
v 0.256008 0.471397 -0.843946
v 0.172054 0.471397 -0.864975
v 0.086444 0.471397 -0.877674
v 0.000000 0.471397 -0.881921
v -0.086443 0.471397 -0.877674
v -0.172054 0.471397 -0.864975
v -0.256008 0.471397 -0.843946
v -0.337496 0.471397 -0.814789
v -0.415734 0.471397 -0.777785
v -0.489969 0.471397 -0.733291
v 0.461940 0.555570 -0.691341
v 0.391952 0.555570 -0.733290
v 0.318190 0.555570 -0.768177
v 0.241363 0.555570 -0.795666
v 0.162212 0.555570 -0.815493
v 0.081498 0.555570 -0.827466
v 0.000000 0.555570 -0.831469
v -0.081498 0.555570 -0.827466
v -0.162211 0.555570 -0.815493
v -0.241363 0.555570 -0.795667
v -0.318189 0.555570 -0.768178
v -0.391952 0.555570 -0.733291
v -0.461939 0.555570 -0.691342
v 0.429462 0.634393 -0.642734
v 0.364395 0.634393 -0.681734
v 0.295818 0.634393 -0.714168
v 0.224393 0.634393 -0.739725
v 0.150807 0.634393 -0.758157
v 0.075768 0.634393 -0.769288
v 0.000000 0.634393 -0.773010
v -0.075768 0.634393 -0.769288
v -0.150807 0.634393 -0.758157
v -0.224393 0.634393 -0.739725
v -0.295818 0.634393 -0.714168
v -0.364394 0.634393 -0.681734
v -0.429461 0.634393 -0.642735
v 0.392848 0.707107 -0.587937
v 0.333328 0.707107 -0.623612
v 0.270598 0.707107 -0.653281
v 0.205262 0.707107 -0.676659
v 0.137950 0.707107 -0.693520
v 0.069309 0.707107 -0.703702
v 0.000000 0.707107 -0.707107
v -0.069308 0.707107 -0.703702
v -0.137949 0.707107 -0.693520
v -0.205262 0.707107 -0.676659
v -0.270598 0.707107 -0.653281
v -0.333328 0.707107 -0.623612
v -0.392847 0.707107 -0.587938
v 0.352450 0.773010 -0.527478
v 0.299051 0.773010 -0.559485
v 0.242772 0.773010 -0.586103
v 0.184155 0.773010 -0.607076
v 0.123764 0.773010 -0.622203
v 0.062182 0.773010 -0.631338
v 0.000000 0.773010 -0.634393
v -0.062181 0.773010 -0.631338
v -0.123764 0.773010 -0.622203
v -0.184154 0.773010 -0.607076
v -0.242772 0.773010 -0.586103
v -0.299051 0.773010 -0.559485
v -0.352450 0.773010 -0.527479
v 0.308658 0.831470 -0.461940
v 0.261894 0.831470 -0.489969
v 0.212608 0.831470 -0.513280
v 0.161274 0.831470 -0.531647
v 0.108387 0.831470 -0.544895
v 0.054456 0.831470 -0.552895
v 0.000000 0.831470 -0.555570
v -0.054455 0.831470 -0.552895
v -0.108386 0.831470 -0.544895
v -0.161273 0.831470 -0.531648
v -0.212607 0.831470 -0.513280
v -0.261894 0.831470 -0.489969
v -0.308658 0.831470 -0.461940
v 0.261894 0.881921 -0.391952
v 0.222215 0.881921 -0.415735
v 0.180396 0.881921 -0.435514
v 0.136839 0.881921 -0.451098
v 0.091965 0.881921 -0.462339
v 0.046205 0.881921 -0.469127
v 0.000000 0.881921 -0.471397
v -0.046205 0.881921 -0.469127
v -0.091965 0.881921 -0.462339
v -0.136839 0.881921 -0.451099
v -0.180396 0.881921 -0.435514
v -0.222215 0.881921 -0.415735
v -0.261894 0.881921 -0.391952
v 0.212608 0.923880 -0.318190
v 0.180396 0.923880 -0.337497
v 0.146447 0.923880 -0.353553
v 0.111087 0.923880 -0.366205
v 0.074658 0.923880 -0.375330
v 0.037510 0.923880 -0.380841
v 0.000000 0.923880 -0.382683
v -0.037509 0.923880 -0.380841
v -0.074658 0.923880 -0.375330
v -0.111087 0.923880 -0.366205
v -0.146446 0.923880 -0.353553
v -0.180396 0.923880 -0.337497
v -0.212607 0.923880 -0.318190
vt 0.140625 0.625000
vt 0.156250 0.625000
vt 0.171875 0.625000
vt 0.187500 0.625000
vt 0.203125 0.625000
vt 0.218750 0.625000
vt 0.234375 0.625000
vt 0.250000 0.625000
vt 0.265625 0.625000
vt 0.281250 0.625000
vt 0.296875 0.625000
vt 0.312500 0.625000
vt 0.328125 0.625000
vt 0.140625 0.656250
vt 0.156250 0.656250
vt 0.171875 0.656250
vt 0.187500 0.656250
vt 0.203125 0.656250
vt 0.218750 0.656250
vt 0.234375 0.656250
vt 0.250000 0.656250
vt 0.265625 0.656250
vt 0.281250 0.656250
vt 0.296875 0.656250
vt 0.312500 0.656250
vt 0.328125 0.656250
vt 0.140625 0.687500
vt 0.156250 0.687500
vt 0.171875 0.687500
vt 0.187500 0.687500
vt 0.203125 0.687500
vt 0.218750 0.687500
vt 0.234375 0.687500
vt 0.250000 0.687500
vt 0.265625 0.687500
vt 0.281250 0.687500
vt 0.296875 0.687500
vt 0.312500 0.687500
vt 0.328125 0.687500
vt 0.140625 0.718750
vt 0.156250 0.718750
vt 0.171875 0.718750
vt 0.187500 0.718750
vt 0.203125 0.718750
vt 0.218750 0.718750
vt 0.234375 0.718750
vt 0.250000 0.718750
vt 0.265625 0.718750
vt 0.281250 0.718750
vt 0.296875 0.718750
vt 0.312500 0.718750
vt 0.328125 0.718750
vt 0.140625 0.750000
vt 0.156250 0.750000
vt 0.171875 0.750000
vt 0.187500 0.750000
vt 0.203125 0.750000
vt 0.218750 0.750000
vt 0.234375 0.750000
vt 0.250000 0.750000
vt 0.265625 0.750000
vt 0.281250 0.750000
vt 0.296875 0.750000
vt 0.312500 0.750000
vt 0.328125 0.750000
vt 0.140625 0.781250
vt 0.156250 0.781250
vt 0.171875 0.781250
vt 0.187500 0.781250
vt 0.203125 0.781250
vt 0.218750 0.781250
vt 0.234375 0.781250
vt 0.250000 0.781250
vt 0.265625 0.781250
vt 0.281250 0.781250
vt 0.296875 0.781250
vt 0.312500 0.781250
vt 0.328125 0.781250
vt 0.140625 0.812500
vt 0.156250 0.812500
vt 0.171875 0.812500
vt 0.187500 0.812500
vt 0.203125 0.812500
vt 0.218750 0.812500
vt 0.234375 0.812500
vt 0.250000 0.812500
vt 0.265625 0.812500
vt 0.281250 0.812500
vt 0.296875 0.812500
vt 0.312500 0.812500
vt 0.328125 0.812500
vt 0.140625 0.843750
vt 0.156250 0.843750
vt 0.171875 0.843750
vt 0.187500 0.843750
vt 0.203125 0.843750
vt 0.218750 0.843750
vt 0.234375 0.843750
vt 0.250000 0.843750
vt 0.265625 0.843750
vt 0.281250 0.843750
vt 0.296875 0.843750
vt 0.312500 0.843750
vt 0.328125 0.843750
vt 0.140625 0.875000
vt 0.156250 0.875000
vt 0.171875 0.875000
vt 0.187500 0.875000
vt 0.203125 0.875000
vt 0.218750 0.875000
vt 0.234375 0.875000
vt 0.250000 0.875000
vt 0.265625 0.875000
vt 0.281250 0.875000
vt 0.296875 0.875000
vt 0.312500 0.875000
vt 0.328125 0.875000
vn -0.464846 -0.427134 0.775548
vn -0.453519 -0.470957 0.756651
vn -0.415735 -0.471399 0.777784
vn -0.426138 -0.427555 0.797247
vn -0.337496 -0.471399 0.814788
vn -0.345942 -0.427555 0.835177
vn -0.256008 -0.471399 0.843945
vn -0.262415 -0.427555 0.865064
vn -0.172055 -0.471399 0.864974
vn -0.176360 -0.427555 0.886619
vn -0.086444 -0.471399 0.877673
vn -0.088607 -0.427555 0.899637
vn -0.000000 -0.471399 0.881920
vn 0.000000 -0.427555 0.903990
vn 0.086443 -0.471399 0.877674
vn 0.088606 -0.427555 0.899637
vn 0.172054 -0.471399 0.864974
vn 0.176359 -0.427555 0.886620
vn 0.256008 -0.471399 0.843945
vn 0.262414 -0.427555 0.865064
vn 0.337496 -0.471399 0.814788
vn 0.345942 -0.427555 0.835177
vn 0.415734 -0.471399 0.777784
vn 0.426138 -0.427555 0.797247
vn 0.453519 -0.470957 0.756651
vn 0.464846 -0.427134 0.775548
vn -0.427619 -0.555109 0.713439
vn -0.391952 -0.555572 0.733289
vn -0.318189 -0.555572 0.768176
vn -0.241363 -0.555572 0.795665
vn -0.162212 -0.555572 0.815492
vn -0.081498 -0.555572 0.827465
vn -0.000000 -0.555572 0.831468
vn 0.081498 -0.555572 0.827465
vn 0.162211 -0.555572 0.815492
vn 0.241362 -0.555572 0.795666
vn 0.318189 -0.555572 0.768177
vn 0.391951 -0.555572 0.733290
vn 0.427619 -0.555109 0.713439
vn -0.397599 -0.633938 0.663353
vn -0.364394 -0.634395 0.681733
vn -0.295818 -0.634395 0.714167
vn -0.224393 -0.634395 0.739723
vn -0.150807 -0.634395 0.758156
vn -0.075768 -0.634395 0.769287
vn -0.000000 -0.634395 0.773009
vn 0.075768 -0.634395 0.769287
vn 0.150806 -0.634395 0.758156
vn 0.224392 -0.634395 0.739724
vn 0.295817 -0.634395 0.714167
vn 0.364394 -0.634395 0.681733
vn 0.397599 -0.633938 0.663353
vn -0.363744 -0.706683 0.606869
vn -0.333327 -0.707109 0.623611
vn -0.270598 -0.707109 0.653279
vn -0.205262 -0.707109 0.676657
vn -0.137949 -0.707109 0.693518
vn -0.069308 -0.707109 0.703700
vn -0.000000 -0.707109 0.707105
vn 0.069308 -0.707109 0.703700
vn 0.137949 -0.707109 0.693518
vn 0.205261 -0.707109 0.676657
vn 0.270597 -0.707109 0.653279
vn 0.333326 -0.707109 0.623611
vn 0.363743 -0.706683 0.606869
vn -0.326377 -0.772637 0.544527
vn -0.299050 -0.773012 0.559483
vn -0.242771 -0.773012 0.586101
vn -0.184154 -0.773012 0.607074
vn -0.123764 -0.773012 0.622202
vn -0.062181 -0.773012 0.631336
vn -0.000000 -0.773012 0.634391
vn 0.062181 -0.773012 0.631336
vn 0.123763 -0.773012 0.622202
vn 0.184154 -0.773012 0.607074
vn 0.242771 -0.773012 0.586101
vn 0.299050 -0.773012 0.559483
vn 0.326377 -0.772637 0.544527
vn -0.285857 -0.831162 0.476924
vn -0.261893 -0.831471 0.489967
vn -0.212607 -0.831471 0.513278
vn -0.161273 -0.831471 0.531646
vn -0.108386 -0.831471 0.544893
vn -0.054455 -0.831471 0.552893
vn -0.000000 -0.831471 0.555568
vn 0.054455 -0.831471 0.552893
vn 0.108386 -0.831471 0.544893
vn 0.161273 -0.831471 0.531646
vn 0.212607 -0.831471 0.513278
vn 0.261893 -0.831471 0.489967
vn 0.285857 -0.831161 0.476924
vn -0.242573 -0.881686 0.404708
vn -0.222214 -0.881922 0.415733
vn -0.180395 -0.881922 0.435512
vn -0.136839 -0.881922 0.451097
vn -0.091965 -0.881922 0.462337
vn -0.046205 -0.881922 0.469125
vn -0.000000 -0.881922 0.471395
vn 0.046205 -0.881922 0.469125
vn 0.091964 -0.881922 0.462337
vn 0.136838 -0.881922 0.451097
vn 0.180395 -0.881922 0.435512
vn 0.222214 -0.881922 0.415733
vn 0.242573 -0.881686 0.404708
vn -0.220024 -0.903790 0.367088
vn -0.201548 -0.903989 0.377070
vn -0.163619 -0.903989 0.395009
vn -0.124113 -0.903989 0.409145
vn -0.083412 -0.903989 0.419340
vn -0.041908 -0.903989 0.425496
vn 0.000000 -0.903989 0.427555
vn 0.041908 -0.903989 0.425496
vn 0.083412 -0.903989 0.419340
vn 0.124112 -0.903989 0.409145
vn 0.163618 -0.903989 0.395010
vn 0.201548 -0.903989 0.377070
vn 0.220024 -0.903790 0.367087
s 1
g pSphere1
usemtl initialShadingGroup
f 1/1/1 14/14/2 15/15/3 2/2/4
f 2/2/4 15/15/3 16/16/5 3/3/6
f 3/3/6 16/16/5 17/17/7 4/4/8
f 4/4/8 17/17/7 18/18/9 5/5/10
f 5/5/10 18/18/9 19/19/11 6/6/12
f 6/6/12 19/19/11 20/20/13 7/7/14
f 7/7/14 20/20/13 21/21/15 8/8/16
f 8/8/16 21/21/15 22/22/17 9/9/18
f 9/9/18 22/22/17 23/23/19 10/10/20
f 10/10/20 23/23/19 24/24/21 11/11/22
f 11/11/22 24/24/21 25/25/23 12/12/24
f 12/12/24 25/25/23 26/26/25 13/13/26
f 14/14/2 27/27/27 28/28/28 15/15/3
f 15/15/3 28/28/28 29/29/29 16/16/5
f 16/16/5 29/29/29 30/30/30 17/17/7
f 17/17/7 30/30/30 31/31/31 18/18/9
f 18/18/9 31/31/31 32/32/32 19/19/11
f 19/19/11 32/32/32 33/33/33 20/20/13
f 20/20/13 33/33/33 34/34/34 21/21/15
f 21/21/15 34/34/34 35/35/35 22/22/17
f 22/22/17 35/35/35 36/36/36 23/23/19
f 23/23/19 36/36/36 37/37/37 24/24/21
f 24/24/21 37/37/37 38/38/38 25/25/23
f 25/25/23 38/38/38 39/39/39 26/26/25
f 27/27/27 40/40/40 41/41/41 28/28/28
f 28/28/28 41/41/41 42/42/42 29/29/29
f 29/29/29 42/42/42 43/43/43 30/30/30
f 30/30/30 43/43/43 44/44/44 31/31/31
f 31/31/31 44/44/44 45/45/45 32/32/32
f 32/32/32 45/45/45 46/46/46 33/33/33
f 33/33/33 46/46/46 47/47/47 34/34/34
f 34/34/34 47/47/47 48/48/48 35/35/35
f 35/35/35 48/48/48 49/49/49 36/36/36
f 36/36/36 49/49/49 50/50/50 37/37/37
f 37/37/37 50/50/50 51/51/51 38/38/38
f 38/38/38 51/51/51 52/52/52 39/39/39
f 40/40/40 53/53/53 54/54/54 41/41/41
f 41/41/41 54/54/54 55/55/55 42/42/42
f 42/42/42 55/55/55 56/56/56 43/43/43
f 43/43/43 56/56/56 57/57/57 44/44/44
f 44/44/44 57/57/57 58/58/58 45/45/45
f 45/45/45 58/58/58 59/59/59 46/46/46
f 46/46/46 59/59/59 60/60/60 47/47/47
f 47/47/47 60/60/60 61/61/61 48/48/48
f 48/48/48 61/61/61 62/62/62 49/49/49
f 49/49/49 62/62/62 63/63/63 50/50/50
f 50/50/50 63/63/63 64/64/64 51/51/51
f 51/51/51 64/64/64 65/65/65 52/52/52
f 53/53/53 66/66/66 67/67/67 54/54/54
f 54/54/54 67/67/67 68/68/68 55/55/55
f 55/55/55 68/68/68 69/69/69 56/56/56
f 56/56/56 69/69/69 70/70/70 57/57/57
f 57/57/57 70/70/70 71/71/71 58/58/58
f 58/58/58 71/71/71 72/72/72 59/59/59
f 59/59/59 72/72/72 73/73/73 60/60/60
f 60/60/60 73/73/73 74/74/74 61/61/61
f 61/61/61 74/74/74 75/75/75 62/62/62
f 62/62/62 75/75/75 76/76/76 63/63/63
f 63/63/63 76/76/76 77/77/77 64/64/64
f 64/64/64 77/77/77 78/78/78 65/65/65
f 66/66/66 79/79/79 80/80/80 67/67/67
f 67/67/67 80/80/80 81/81/81 68/68/68
f 68/68/68 81/81/81 82/82/82 69/69/69
f 69/69/69 82/82/82 83/83/83 70/70/70
f 70/70/70 83/83/83 84/84/84 71/71/71
f 71/71/71 84/84/84 85/85/85 72/72/72
f 72/72/72 85/85/85 86/86/86 73/73/73
f 73/73/73 86/86/86 87/87/87 74/74/74
f 74/74/74 87/87/87 88/88/88 75/75/75
f 75/75/75 88/88/88 89/89/89 76/76/76
f 76/76/76 89/89/89 90/90/90 77/77/77
f 77/77/77 90/90/90 91/91/91 78/78/78
f 79/79/79 92/92/92 93/93/93 80/80/80
f 80/80/80 93/93/93 94/94/94 81/81/81
f 81/81/81 94/94/94 95/95/95 82/82/82
f 82/82/82 95/95/95 96/96/96 83/83/83
f 83/83/83 96/96/96 97/97/97 84/84/84
f 84/84/84 97/97/97 98/98/98 85/85/85
f 85/85/85 98/98/98 99/99/99 86/86/86
f 86/86/86 99/99/99 100/100/100 87/87/87
f 87/87/87 100/100/100 101/101/101 88/88/88
f 88/88/88 101/101/101 102/102/102 89/89/89
f 89/89/89 102/102/102 103/103/103 90/90/90
f 90/90/90 103/103/103 104/104/104 91/91/91
f 92/92/92 105/105/105 106/106/106 93/93/93
f 93/93/93 106/106/106 107/107/107 94/94/94
f 94/94/94 107/107/107 108/108/108 95/95/95
f 95/95/95 108/108/108 109/109/109 96/96/96
f 96/96/96 109/109/109 110/110/110 97/97/97
f 97/97/97 110/110/110 111/111/111 98/98/98
f 98/98/98 111/111/111 112/112/112 99/99/99
f 99/99/99 112/112/112 113/113/113 100/100/100
f 100/100/100 113/113/113 114/114/114 101/101/101
f 101/101/101 114/114/114 115/115/115 102/102/102
f 102/102/102 115/115/115 116/116/116 103/103/103
f 103/103/103 116/116/116 117/117/117 104/104/104
